<?xml version="1.0" standalone="no"?><!DOCTYPE svg PUBLIC "-//W3C//DTD SVG 1.1//EN" "http://www.w3.org/Graphics/SVG/1.1/DTD/svg11.dtd"><svg height="120" node-id="1" sillyvg="true" template-height="120" template-width="120" version="1.1" viewBox="0 0 120 120" width="120" xmlns="http://www.w3.org/2000/svg" xmlns:xlink="http://www.w3.org/1999/xlink"><defs node-id="44"></defs><g node-id="46"><g node-id="47"><path d="M -121.00 -61.00 L 241.00 -61.00 L 241.00 181.00 L -121.00 181.00 Z" fill="none" group-id="1,2" id="矩形备份-11" node-id="7" stroke="none" target-height="242" target-width="362" target-x="-121" target-y="-61"></path><g node-id="48"><path d="M 90.88 110.31 L 93.44 110.99 L 95.69 111.23 L 97.67 111.10 L 100.49 110.36 L 102.74 109.17 L 104.62 107.62 L 105.91 106.06 L 106.76 104.43 L 107.00 103.30 L 106.73 102.48 L 105.86 101.53 L 104.09 100.38 L 101.01 99.06 L 96.73 97.85 L 92.10 97.06 L 87.00 96.76 L 81.90 96.98 L 77.27 97.62 L 74.28 98.32 L 71.86 99.18 L 69.91 100.15 L 68.26 101.44 L 67.34 102.82 L 67.00 104.34 L 67.27 105.40 L 67.99 106.23 L 69.30 106.88 L 71.72 107.46 L 75.13 107.87 L 82.87 108.58 L 86.95 109.24 L 90.88 110.31 Z" fill="#000000" fill-opacity="0.05" fill-rule="evenodd" group-id="1,2,3" id="椭圆形" node-id="9" stroke="none" target-height="14.464684" target-width="40" target-x="67" target-y="96.7643"></path><g node-id="49"><g node-id="50"><path d="M 29.00 16.00 L 67.00 16.00 L 68.18 16.24 L 69.12 16.88 L 69.76 17.82 L 70.00 19.00 L 70.00 28.00 L 69.76 29.18 L 69.12 30.12 L 68.18 30.76 L 67.00 31.00 L 29.00 31.00 L 27.82 30.76 L 26.88 30.12 L 26.24 29.18 L 26.00 28.00 L 26.00 19.00 L 26.24 17.82 L 26.88 16.88 L 27.82 16.24 L 29.00 16.00 Z" fill="#ffffff" fill-rule="evenodd" group-id="1,2,3,4,5" id="矩形" node-id="12" stroke="#ededed" stroke-linecap="butt" stroke-width="1.5" target-height="15" target-width="44" target-x="26" target-y="16"></path><path d="M 29.00 63.00 L 67.00 63.00 L 68.18 63.24 L 69.12 63.88 L 69.76 64.82 L 70.00 66.00 L 70.00 75.00 L 69.76 76.18 L 69.12 77.12 L 68.18 77.76 L 67.00 78.00 L 29.00 78.00 L 27.82 77.76 L 26.88 77.12 L 26.24 76.18 L 26.00 75.00 L 26.00 66.00 L 26.24 64.82 L 26.88 63.88 L 27.82 63.24 L 29.00 63.00 Z" fill="#ffffff" fill-rule="evenodd" group-id="1,2,3,4,5" id="矩形备份-8" node-id="13" stroke="#ededed" stroke-linecap="butt" stroke-width="1.5" target-height="15" target-width="44" target-x="26" target-y="63"></path><path d="M 40.00 23.50 L 39.72 24.87 L 38.97 25.97 L 37.87 26.72 L 36.50 27.00 L 35.13 26.72 L 34.03 25.97 L 33.28 24.87 L 33.00 23.50 L 33.28 22.13 L 34.03 21.03 L 35.13 20.28 L 36.50 20.00 L 37.87 20.28 L 38.97 21.03 L 39.72 22.13 L 40.00 23.50 Z" fill="#ededed" fill-rule="evenodd" group-id="1,2,3,4,5" id="椭圆形" node-id="14" stroke="none" target-height="7" target-width="7" target-x="33" target-y="20"></path><path d="M 40.00 70.50 L 39.72 71.87 L 38.97 72.97 L 37.87 73.72 L 36.50 74.00 L 35.13 73.72 L 34.03 72.97 L 33.28 71.87 L 33.00 70.50 L 33.28 69.13 L 34.03 68.03 L 35.13 67.28 L 36.50 67.00 L 37.87 67.28 L 38.97 68.03 L 39.72 69.13 L 40.00 70.50 Z" fill="#ededed" fill-rule="evenodd" group-id="1,2,3,4,5" id="椭圆形备份-3" node-id="15" stroke="none" target-height="7" target-width="7" target-x="33" target-y="67"></path></g><g node-id="51"><path d="M 17.00 28.00 L 55.00 28.00 L 56.18 28.24 L 57.12 28.88 L 57.76 29.82 L 58.00 31.00 L 58.00 40.00 L 57.76 41.18 L 57.12 42.12 L 56.18 42.76 L 55.00 43.00 L 17.00 43.00 L 15.82 42.76 L 14.88 42.12 L 14.24 41.18 L 14.00 40.00 L 14.00 31.00 L 14.24 29.82 L 14.88 28.88 L 15.82 28.24 L 17.00 28.00 Z" fill="#ffffff" fill-rule="evenodd" group-id="1,2,3,4,6" id="矩形备份-2" node-id="17" stroke="#e6e6e6" stroke-linecap="butt" stroke-width="1.5" target-height="15" target-width="44" target-x="14" target-y="28"></path><path d="M 32.75 36.00 L 50.43 36.00 L 50.96 36.22 L 51.18 36.75 L 50.96 37.28 L 50.43 37.50 L 32.75 37.50 L 32.22 37.28 L 32.00 36.75 L 32.22 36.22 L 32.75 36.00 Z" fill="#dcdcdc" fill-rule="evenodd" group-id="1,2,3,4,6" id="矩形备份-3" node-id="18" stroke="none" target-height="1.5" target-width="19.17575" target-x="32" target-y="36"></path><path d="M 32.75 33.00 L 46.25 33.00 L 46.78 33.22 L 47.00 33.75 L 47.00 33.75 L 46.78 34.28 L 46.25 34.50 L 32.75 34.50 L 32.22 34.28 L 32.00 33.75 L 32.00 33.75 L 32.22 33.22 L 32.75 33.00 Z" fill="#dcdcdc" fill-rule="evenodd" group-id="1,2,3,4,6" id="矩形备份-4" node-id="19" stroke="none" target-height="1.5" target-width="15" target-x="32" target-y="33"></path><path d="M 28.00 35.50 L 27.72 36.87 L 26.97 37.97 L 25.87 38.72 L 24.50 39.00 L 23.13 38.72 L 22.03 37.97 L 21.28 36.87 L 21.00 35.50 L 21.28 34.13 L 22.03 33.03 L 23.13 32.28 L 24.50 32.00 L 25.87 32.28 L 26.97 33.03 L 27.72 34.13 L 28.00 35.50 Z" fill="#dcdcdc" fill-rule="evenodd" group-id="1,2,3,4,6" id="椭圆形备份" node-id="20" stroke="none" target-height="7" target-width="7" target-x="21" target-y="32"></path></g><g node-id="52"><path d="M 31.00 40.00 L 77.00 40.00 L 78.18 40.24 L 79.12 40.88 L 79.76 41.82 L 80.00 43.00 L 80.00 54.73 L 79.76 55.90 L 79.12 56.85 L 78.18 57.49 L 77.00 57.73 L 31.00 57.73 L 29.82 57.49 L 28.88 56.85 L 28.24 55.90 L 28.00 54.73 L 28.00 43.00 L 28.24 41.82 L 28.88 40.88 L 29.82 40.24 L 31.00 40.00 Z" fill="#ffffff" fill-rule="evenodd" group-id="1,2,3,4,7" id="矩形备份-5" node-id="22" stroke="#dadada" stroke-linecap="butt" stroke-width="1.5" target-height="17.727272" target-width="52" target-x="28" target-y="40"></path><path d="M 50.16 49.45 L 71.05 49.45 L 71.68 49.71 L 71.93 50.34 L 71.68 50.97 L 71.05 51.23 L 50.16 51.23 L 49.53 50.97 L 49.27 50.34 L 49.53 49.71 L 50.16 49.45 Z" fill="#fa7268" fill-rule="evenodd" group-id="1,2,3,4,7" id="矩形备份-6" node-id="23" stroke="none" target-height="1.772728" target-width="22.662254" target-x="49.272728" target-y="49.454544"></path><path d="M 50.16 45.91 L 66.11 45.91 L 66.74 46.17 L 67.00 46.80 L 67.00 46.80 L 66.74 47.42 L 66.11 47.68 L 50.16 47.68 L 49.53 47.42 L 49.27 46.80 L 49.27 46.80 L 49.53 46.17 L 50.16 45.91 Z" fill="#fa7268" fill-rule="evenodd" group-id="1,2,3,4,7" id="矩形备份-7" node-id="24" stroke="none" target-height="1.7727242" target-width="17.727272" target-x="49.272728" target-y="45.909092"></path><path d="M 44.55 48.86 L 44.22 50.49 L 43.33 51.79 L 42.03 52.67 L 40.41 53.00 L 38.79 52.67 L 37.48 51.79 L 36.60 50.49 L 36.27 48.86 L 36.60 47.24 L 37.48 45.94 L 38.79 45.06 L 40.41 44.73 L 42.03 45.06 L 43.33 45.94 L 44.22 47.24 L 44.55 48.86 Z" fill="#dadada" fill-rule="evenodd" group-id="1,2,3,4,7" id="椭圆形备份-2" node-id="25" stroke="none" target-height="8.272728" target-width="8.272728" target-x="36.272728" target-y="44.727272"></path></g><path d="M 44.75 24.00 L 62.43 24.00 L 62.96 24.22 L 63.18 24.75 L 62.96 25.28 L 62.43 25.50 L 44.75 25.50 L 44.22 25.28 L 44.00 24.75 L 44.22 24.22 L 44.75 24.00 Z" fill="#ededed" fill-rule="evenodd" group-id="1,2,3,4" id="矩形" node-id="26" stroke="none" target-height="1.5" target-width="19.17575" target-x="44" target-y="24"></path><path d="M 44.75 71.00 L 62.43 71.00 L 62.96 71.22 L 63.18 71.75 L 62.96 72.28 L 62.43 72.50 L 44.75 72.50 L 44.22 72.28 L 44.00 71.75 L 44.22 71.22 L 44.75 71.00 Z" fill="#ededed" fill-rule="evenodd" group-id="1,2,3,4" id="矩形备份-9" node-id="27" stroke="none" target-height="1.5" target-width="19.17575" target-x="44" target-y="71"></path><path d="M 44.75 21.00 L 58.25 21.00 L 58.78 21.22 L 59.00 21.75 L 59.00 21.75 L 58.78 22.28 L 58.25 22.50 L 44.75 22.50 L 44.22 22.28 L 44.00 21.75 L 44.00 21.75 L 44.22 21.22 L 44.75 21.00 Z" fill="#ededed" fill-rule="evenodd" group-id="1,2,3,4" id="矩形备份" node-id="28" stroke="none" target-height="1.5" target-width="15" target-x="44" target-y="21"></path><path d="M 44.75 68.00 L 58.25 68.00 L 58.78 68.22 L 59.00 68.75 L 59.00 68.75 L 58.78 69.28 L 58.25 69.50 L 44.75 69.50 L 44.22 69.28 L 44.00 68.75 L 44.00 68.75 L 44.22 68.22 L 44.75 68.00 Z" fill="#ededed" fill-rule="evenodd" group-id="1,2,3,4" id="矩形备份-10" node-id="29" stroke="none" target-height="1.5" target-width="15" target-x="44" target-y="68"></path><path d="M 89.12 101.50 L 87.21 102.14 L 83.82 95.05 L 86.65 94.11 Z" fill="#ffcbc1" fill-rule="nonzero" group-id="1,2,3,4" id="路径" node-id="30" stroke="none" target-height="8.030212" target-width="5.2987595" target-x="83.82469" target-y="94.10924"></path><path d="M 89.58 102.62 L 88.16 103.46 L 86.63 104.05 L 84.34 104.50 L 83.89 104.36 L 83.75 104.03 L 84.00 103.10 L 84.33 102.70 L 84.85 102.36 L 85.96 101.90 L 86.72 100.89 L 88.37 100.89 L 88.91 100.71 L 89.51 101.68 L 89.58 102.62 Z" fill="#2f2e41" fill-rule="nonzero" group-id="1,2,3,4" id="路径" node-id="31" stroke="none" target-height="3.7882004" target-width="5.824646" target-x="83.75066" target-y="100.70979"></path><path d="M 93.86 103.30 L 91.84 103.30 L 90.88 95.51 L 93.86 95.51 Z" fill="#ffcbc1" fill-rule="nonzero" group-id="1,2,3,4" id="路径" node-id="32" stroke="none" target-height="7.791725" target-width="2.981514" target-x="90.87559" target-y="95.50828"></path><path d="M 94.14 105.11 L 93.60 105.44 L 92.46 105.70 L 89.98 105.86 L 88.44 105.70 L 88.20 105.41 L 88.17 105.06 L 88.63 104.29 L 89.13 104.00 L 89.96 103.78 L 91.43 103.63 L 91.86 102.81 L 93.47 103.28 L 93.92 103.05 L 94.19 104.47 L 94.14 105.11 Z" fill="#2f2e41" fill-rule="nonzero" group-id="1,2,3,4" id="路径" node-id="33" stroke="none" target-height="3.0568695" target-width="6.011917" target-x="88.174446" target-y="102.80795"></path><path d="M 78.48 40.87 L 78.74 41.46 L 79.22 41.88 L 79.83 42.06 L 80.46 41.96 L 82.80 44.40 L 84.62 43.34 L 81.28 39.95 L 80.96 39.50 L 80.52 39.21 L 80.01 39.09 L 79.47 39.17 L 78.99 39.43 L 78.65 39.83 L 78.47 40.32 L 78.48 40.87 Z" fill="#ffcbc1" fill-rule="nonzero" group-id="1,2,3,4" id="路径" node-id="34" stroke="none" target-height="5.3024445" target-width="6.147766" target-x="78.47424" target-y="39.094124"></path><path d="M 93.58 53.11 L 94.63 52.03 L 88.55 46.39 L 82.43 40.93 L 80.73 43.33 L 87.15 49.31 Z" fill="#e4e4e4" fill-rule="nonzero" group-id="1,2,3,4" id="路径" node-id="35" stroke="none" target-height="12.182205" target-width="13.893517" target-x="80.7331" target-y="40.931175"></path><path d="M 89.84 90.07 L 89.89 86.94 L 89.91 85.02 L 89.70 83.11 L 89.09 80.08 L 88.87 79.07 L 87.54 83.05 L 87.06 85.00 L 86.90 87.00 L 88.94 99.29 L 84.76 99.29 L 81.69 86.00 L 81.69 81.94 L 81.37 81.44 L 81.27 80.89 L 81.37 80.35 L 81.69 79.85 L 82.71 73.76 L 83.74 65.55 L 95.04 65.55 L 95.48 66.78 L 95.77 68.05 L 95.93 69.83 L 95.75 71.70 L 95.05 73.78 L 95.05 90.07 L 94.02 101.33 L 90.86 101.33 L 89.84 90.07 Z" fill="#fa7268" fill-rule="nonzero" group-id="1,2,3,4" id="路径" node-id="36" stroke="none" target-height="35.77868" target-width="14.659119" target-x="81.26628" target-y="65.552414"></path><path d="M 94.34 66.55 L 83.78 65.67 L 83.72 65.66 L 84.57 50.48 L 84.86 49.07 L 85.53 47.85 L 86.52 46.87 L 87.80 46.21 L 87.80 45.14 L 88.09 44.44 L 88.79 44.15 L 90.34 44.15 L 90.86 44.30 L 91.22 44.70 L 91.98 46.21 L 94.83 48.50 L 95.21 49.20 L 95.47 50.92 L 95.49 55.21 L 95.24 59.40 L 95.05 61.53 L 95.74 64.98 L 95.73 65.56 L 95.47 66.07 L 95.02 66.42 L 94.46 66.55 L 94.34 66.55 Z" fill="#e4e4e4" fill-rule="nonzero" group-id="1,2,3,4" id="路径" node-id="37" stroke="none" target-height="22.397629" target-width="12.016388" target-x="83.722664" target-y="44.153137"></path><path d="M 83.15 70.55 L 83.55 70.05 L 83.70 69.43 L 83.57 68.80 L 83.18 68.29 L 84.23 65.09 L 82.44 63.98 L 81.02 68.52 L 80.78 69.01 L 80.73 69.53 L 80.86 70.04 L 81.19 70.48 L 81.64 70.78 L 82.16 70.89 L 82.68 70.82 L 83.15 70.55 L 83.15 70.55 Z" fill="#ffcbc1" fill-rule="nonzero" group-id="1,2,3,4" id="路径" node-id="38" stroke="none" target-height="6.9180374" target-width="3.5002518" target-x="80.73027" target-y="63.975594"></path><path d="M 86.84 48.77 L 85.38 48.29 L 83.28 57.66 L 81.35 66.98 L 84.26 67.41 L 86.52 57.50 Z" fill="#e4e4e4" fill-rule="nonzero" group-id="1,2,3,4" id="路径" node-id="39" stroke="none" target-height="19.126484" target-width="5.49131" target-x="81.348" target-y="48.285793"></path><path d="M 91.90 39.71 L 91.62 41.07 L 90.88 42.17 L 89.79 42.91 L 88.43 43.18 L 87.07 42.91 L 85.97 42.17 L 85.23 41.07 L 84.96 39.71 L 85.23 38.35 L 85.97 37.26 L 87.07 36.52 L 88.43 36.24 L 89.79 36.52 L 90.88 37.26 L 91.62 38.35 L 91.90 39.71 Z" fill="#ffdcd5" fill-rule="nonzero" group-id="1,2,3,4" id="椭圆形" node-id="40" stroke="none" target-height="6.9412766" target-width="6.941284" target-x="84.95736" target-y="36.241585"></path><path d="M 93.25 35.95 L 92.14 34.84 L 92.40 34.52 L 92.65 34.19 L 92.24 34.33 L 91.84 34.47 L 91.94 34.20 L 92.01 33.94 L 91.79 34.07 L 91.59 34.19 L 90.89 33.80 L 90.11 33.67 L 88.59 33.67 L 87.90 33.81 L 86.92 34.19 L 86.26 34.62 L 85.68 35.21 L 84.86 36.45 L 84.58 37.17 L 84.76 37.30 L 85.09 37.17 L 85.17 37.42 L 85.28 37.69 L 85.81 37.54 L 86.06 37.51 L 86.38 37.78 L 86.71 38.28 L 86.92 38.48 L 87.43 38.63 L 87.99 38.64 L 88.77 39.04 L 89.15 39.23 L 89.50 38.92 L 89.76 38.87 L 90.11 39.03 L 90.41 39.51 L 90.45 40.27 L 90.08 41.83 L 89.78 42.60 L 90.19 42.91 L 90.41 42.96 L 90.72 42.80 L 92.01 41.26 L 93.24 39.78 L 93.68 38.69 L 93.74 37.25 L 93.58 36.57 L 93.25 35.95 Z" fill="#2f2e41" fill-rule="nonzero" group-id="1,2,3,4" id="路径" node-id="41" stroke="none" target-height="9.293903" target-width="9.153526" target-x="84.58428" target-y="33.668297"></path><path d="M 84.65 65.75 L 87.69 66.00 L 88.88 57.46 Z" fill="#000000" fill-opacity="0.1" fill-rule="nonzero" group-id="1,2,3,4,8" id="路径" node-id="42" stroke="none" target-height="8.541111" target-width="4.222885" target-x="84.65436" target-y="57.456966"></path></g></g></g></g></svg>